<?xml version="1.0" encoding="UTF-8" standalone="no"?>
<!DOCTYPE svg PUBLIC "-//W3C//DTD SVG 1.1//EN" "http://www.w3.org/Graphics/SVG/1.1/DTD/svg11.dtd">
<svg version="1.1" xmlns="http://www.w3.org/2000/svg" xmlns:xlink="http://www.w3.org/1999/xlink" preserveAspectRatio="xMidYMid meet" viewBox="0 0 1000 1000" width="1000" height="1000"><defs><path d="M733.9 542.19L807.56 542.19L772.58 444.33L816.33 333.76L941.56 666.24L849.23 666.24L827.83 606.7L708.39 606.7L733.9 542.19Z" id="asGEq3ubT"></path><path d="M763.67 333.76L674.77 333.76L583.06 548.61L517.87 333.76L449.55 333.76L379.52 548.61L330.16 450.71L285.46 588.38L330.84 666.24L418.29 666.24L481.59 473.56L541.89 666.24L629.62 666.24L763.67 333.76Z" id="a1mqc0Slgj"></path><path d="M201.86 333.84L204.71 333.95L207.52 334.1L210.3 334.29L213.04 334.52L215.74 334.79L218.41 335.11L221.05 335.47L223.65 335.87L226.21 336.31L228.74 336.8L231.24 337.32L233.7 337.89L236.12 338.5L238.51 339.16L240.86 339.85L243.18 340.59L245.46 341.37L247.71 342.19L249.92 343.06L252.1 343.97L254.24 344.91L256.35 345.9L258.42 346.94L260.46 348.01L262.46 349.13L264.43 350.29L266.36 351.49L268.25 352.73L270.11 354.01L271.94 355.34L273.73 356.71L275.49 358.12L277.21 359.57L278.89 361.07L280.54 362.6L282.16 364.18L283.74 365.8L285.28 367.46L285.57 367.79L285.85 368.11L286.14 368.43L286.42 368.76L286.7 369.08L286.98 369.41L287.26 369.74L287.54 370.06L287.81 370.39L288.09 370.72L288.36 371.05L288.63 371.38L288.9 371.72L289.17 372.05L289.43 372.38L289.7 372.72L289.96 373.05L290.22 373.39L290.48 373.72L290.74 374.06L291 374.4L291.26 374.74L291.51 375.08L291.76 375.42L292.01 375.77L292.26 376.11L292.51 376.46L292.76 376.8L293 377.15L293.25 377.5L293.49 377.84L293.73 378.19L293.97 378.55L294.2 378.9L294.44 379.25L294.67 379.61L294.91 379.96L295.14 380.32L295.37 380.68L295.6 381.04L256.01 502.92L241.85 546.53L240.87 546.81L239.89 547.07L238.91 547.34L237.91 547.59L236.91 547.84L235.9 548.08L234.89 548.31L233.87 548.54L232.84 548.75L231.8 548.97L230.76 549.17L229.71 549.37L228.66 549.56L227.59 549.75L226.52 549.92L225.45 550.09L224.37 550.26L223.28 550.41L222.18 550.56L221.08 550.71L219.97 550.84L218.85 550.97L217.72 551.09L216.59 551.21L215.45 551.31L214.31 551.41L213.16 551.51L212 551.6L210.83 551.68L209.66 551.75L208.48 551.81L207.3 551.87L206.1 551.93L204.9 551.97L203.69 552.01L202.48 552.04L201.26 552.07L200.03 552.08L198.8 552.09L197.56 552.1L142.81 552.1L142.81 666.24L58.44 666.24L58.44 333.76L196.06 333.76L198.98 333.78L201.86 333.84ZM142.81 487.63L174.44 487.63L175.96 487.62L177.47 487.59L178.95 487.55L180.4 487.49L181.84 487.42L183.24 487.33L184.63 487.22L185.98 487.1L187.32 486.96L188.63 486.8L189.92 486.63L191.18 486.44L192.41 486.24L193.63 486.01L194.82 485.77L195.98 485.52L197.12 485.25L198.24 484.96L199.33 484.66L200.4 484.33L201.44 484L202.46 483.64L203.46 483.27L204.43 482.89L205.38 482.48L206.3 482.06L207.2 481.63L208.08 481.18L208.93 480.71L209.75 480.22L210.56 479.72L211.33 479.2L212.09 478.67L212.82 478.11L213.52 477.55L214.21 476.96L214.86 476.36L215.5 475.74L216.11 475.11L216.69 474.46L217.21 473.86L217.71 473.25L218.2 472.63L218.68 472L219.14 471.36L219.59 470.71L220.03 470.05L220.46 469.37L220.87 468.69L221.27 468L221.65 467.29L222.02 466.58L222.38 465.85L222.73 465.12L223.06 464.37L223.38 463.62L223.69 462.85L223.98 462.07L224.26 461.28L224.53 460.49L224.79 459.68L225.03 458.86L225.26 458.03L225.47 457.19L225.67 456.34L225.86 455.48L226.04 454.61L226.2 453.73L226.35 452.83L226.49 451.93L226.61 451.02L226.73 450.1L226.82 449.16L226.91 448.22L226.98 447.27L227.04 446.3L227.08 445.33L227.12 444.34L227.14 443.34L227.14 442.34L227.14 441.34L227.11 440.35L227.08 439.37L227.02 438.4L226.96 437.44L226.88 436.5L226.78 435.56L226.67 434.63L226.54 433.71L226.4 432.8L226.24 431.91L226.07 431.02L225.88 430.14L225.68 429.27L225.47 428.42L225.24 427.57L224.99 426.73L224.73 425.9L224.45 425.09L224.16 424.28L223.86 423.48L223.54 422.7L223.2 421.92L222.85 421.16L222.49 420.4L222.11 419.65L221.72 418.92L221.31 418.19L220.88 417.47L220.44 416.77L219.99 416.07L219.52 415.39L219.04 414.71L218.54 414.05L218.03 413.39L217.5 412.74L216.96 412.11L216.4 411.48L215.83 410.87L215.24 410.26L214.64 409.67L214.02 409.09L213.37 408.53L212.7 407.98L212.01 407.45L211.3 406.93L210.57 406.43L209.82 405.94L209.05 405.47L208.26 405.01L207.44 404.57L206.6 404.14L205.75 403.73L204.87 403.33L203.97 402.95L203.05 402.58L202.11 402.23L201.15 401.89L200.17 401.57L199.16 401.26L198.14 400.97L197.09 400.7L196.02 400.43L194.93 400.19L193.83 399.95L192.7 399.74L191.54 399.54L190.37 399.35L189.18 399.18L187.96 399.02L186.73 398.88L185.47 398.75L184.19 398.64L182.9 398.54L181.58 398.46L180.24 398.39L178.87 398.34L177.49 398.3L176.09 398.28L174.66 398.27L142.81 398.27L142.81 487.63Z" id="bumj6RYGO"></path></defs><g><g><g><use xlink:href="#asGEq3ubT" opacity="1" fill="#3d3d3d" fill-opacity="1"></use><g><use xlink:href="#asGEq3ubT" opacity="1" fill-opacity="0" stroke="#000000" stroke-width="1" stroke-opacity="0"></use></g></g><g><use xlink:href="#a1mqc0Slgj" opacity="1" fill="#5a0fc8" fill-opacity="1"></use><g><use xlink:href="#a1mqc0Slgj" opacity="1" fill-opacity="0" stroke="#000000" stroke-width="1" stroke-opacity="0"></use></g></g><g><use xlink:href="#bumj6RYGO" opacity="1" fill="#3d3d3d" fill-opacity="1"></use><g><use xlink:href="#bumj6RYGO" opacity="1" fill-opacity="0" stroke="#000000" stroke-width="1" stroke-opacity="0"></use></g></g></g></g></svg>