<?xml version="1.0" encoding="utf-8"?>
<!-- Generator: Adobe Illustrator 21.1.0, SVG Export Plug-In . SVG Version: 6.00 Build 0)  -->
<svg version="1.1" id="Layer_1" xmlns="http://www.w3.org/2000/svg" xmlns:xlink="http://www.w3.org/1999/xlink" x="0px" y="0px"
	 viewBox="0 0 1952 734.9" style="enable-background:new 0 0 1952 734.9;" xml:space="preserve">
<style type="text/css">
	.st0{fill:#3D3D3D;}
	.st1{fill:#5A0FC8;}
</style>
<g>
	<path class="st0" d="M1436.6,603.3l56.4-142.6h162.8l-77.3-216.3L1675.2,0L1952,734.9h-204.1l-47.3-131.6H1436.6z"/>
	<path class="st1" d="M1262.5,734.9L1558.8,0l-196.5,0l-202.7,474.9L1015.5,0h-151L709.7,474.9L600.6,258.5l-98.8,304.3l100.3,172.1
		h193.3L935.3,309l133.3,425.9H1262.5z"/>
	<path class="st0" d="M186.5,482.6h121c36.7,0,69.3-4.1,97.9-12.3l31.3-96.4l87.5-269.4c-6.7-10.6-14.3-20.5-22.8-30
		C456.4,24.9,390.7,0,304.2,0H0v734.9h186.5V482.6z M346.6,169.1c17.5,17.7,26.3,41.3,26.3,70.9c0,29.8-7.7,53.5-23.1,71
		c-16.9,19.4-48,29.1-93.4,29.1h-69.9V142.6h70.4C299.2,142.6,329.1,151.4,346.6,169.1z"/>
</g>
</svg>
